HIERARCHY
ROOT Pelvis
{
	OFFSET 0.000000 0.941512 0.000000
	CHANNELS 6 Xposition Yposition Zposition Zrotation Yrotation Xrotation 
	JOINT Pelvis_L_Hip
	{
		OFFSET 0.000000 0.000000 0.000000
		CHANNELS 3 Zrotation Yrotation Xrotation
		JOINT L_Hip
		{
			OFFSET 0.062321 -0.080322 -0.016990
			CHANNELS 3 Zrotation Yrotation Xrotation
			JOINT L_Knee
			{
				OFFSET 0.093051 -0.381305 -0.029784
				CHANNELS 3 Zrotation Yrotation Xrotation
				JOINT L_Ankle
				{
					OFFSET -0.010371 -0.431000 -0.033614
					CHANNELS 3 Zrotation Yrotation Xrotation
					End Site #name: L_Foot
					{
						OFFSET 0.069299 -0.038670 0.119418
					}
				}
			}
		}
	}
	JOINT Pelvis_R_Hip
	{
		OFFSET 0.000000 0.000000 0.000000
		CHANNELS 3 Zrotation Yrotation Xrotation
		JOINT R_Hip
		{
			OFFSET -0.055334 -0.094904 -0.002373
			CHANNELS 3 Zrotation Yrotation Xrotation
			JOINT R_Knee
			{
				OFFSET -0.064207 -0.384370 -0.019592
				CHANNELS 3 Zrotation Yrotation Xrotation
				JOINT R_Ankle
				{
					OFFSET 0.025418 -0.419734 -0.065953
					CHANNELS 3 Zrotation Yrotation Xrotation
					End Site #name: R_Foot
					{
						OFFSET -0.057233 -0.039888 0.132134
					}
				}
			}
		}
	}
	JOINT Pelvis_Spine1
	{
		OFFSET 0.000000 0.000000 0.000000
		CHANNELS 3 Zrotation Yrotation Xrotation
		JOINT Spine1
		{
			OFFSET -0.005562 0.124093 -0.043360
			CHANNELS 3 Zrotation Yrotation Xrotation
			JOINT Spine2
			{
				OFFSET 0.012244 0.139499 0.029894
				CHANNELS 3 Zrotation Yrotation Xrotation
				JOINT Spine3
				{
					OFFSET -0.002556 0.056561 0.009225
					CHANNELS 3 Zrotation Yrotation Xrotation
					JOINT Spine3_Neck
					{
						OFFSET 0.000000 0.000000 0.000000
						CHANNELS 3 Zrotation Yrotation Xrotation
						JOINT Neck
						{
							OFFSET -0.005205 0.217920 -0.024551
							CHANNELS 3 Zrotation Yrotation Xrotation
							End Site #name: Head
							{
								OFFSET 0.002365 0.091850 0.046637
							}
						}
					}
					JOINT Spine3_L_Collar
					{
						OFFSET 0.000000 0.000000 0.000000
						CHANNELS 3 Zrotation Yrotation Xrotation
						JOINT L_Collar
						{
							OFFSET 0.072225 0.116603 -0.009480
							CHANNELS 3 Zrotation Yrotation Xrotation
							JOINT L_Shoulder
							{
								OFFSET 0.115937 -0.058643 -0.021018
								CHANNELS 3 Zrotation Yrotation Xrotation
								JOINT L_Elbow
								{
									OFFSET 0.021994 -0.254722 -0.024492
									CHANNELS 3 Zrotation Yrotation Xrotation
									End Site #name: L_Wrist
									{
										OFFSET 0.048810 -0.240214 0.103329
									}
								}
							}
						}
					}
					JOINT Spine3_R_Collar
					{
						OFFSET 0.000000 0.000000 0.000000
						CHANNELS 3 Zrotation Yrotation Xrotation
						JOINT R_Collar
						{
							OFFSET -0.073372 0.120704 -0.024611
							CHANNELS 3 Zrotation Yrotation Xrotation
							JOINT R_Shoulder
							{
								OFFSET -0.108089 -0.054969 -0.020504
								CHANNELS 3 Zrotation Yrotation Xrotation
								JOINT R_Elbow
								{
									OFFSET -0.033684 -0.260739 0.009889
									CHANNELS 3 Zrotation Yrotation Xrotation
									End Site #name: R_Wrist
									{
										OFFSET -0.067980 -0.232763 0.118463
									}
								}
							}
						}
					}
				}
			}
		}
	}
}
MOTION
Frames: 13
Frame Time: 0.041667
0.000000 0.968014 0.000000 -4.476832 -3.930329 -0.130961 0.000000 0.000000 0.000000 -7.555750 0.876659 0.894483 7.652303 -1.269114 7.275290 4.942673 -8.705720 -12.803894 0.000000 0.000000 0.000000 10.280391 -0.785667 0.949214 -6.301577 1.418269 3.614021 -0.121552 20.037239 -9.935898 0.000000 0.000000 0.000000 8.619828 0.931465 -16.913768 -3.055504 4.068947 38.911343 1.997748 2.040276 -27.922527 0.000000 0.000000 0.000000 -3.641264 2.746677 45.031945 0.000000 0.000000 0.000000 26.696863 0.625095 5.996304 -17.904401 1.876953 3.318022 -7.766940 -15.619669 -34.507627 0.000000 0.000000 0.000000 -25.081350 0.450696 5.200028 16.409073 -0.968405 7.993182 11.327898 31.394379 -43.816866 
-0.000643 0.967350 -0.001127 -4.291927 -4.153827 -0.028617 0.000000 0.000000 0.000000 -7.556015 0.881195 0.906540 7.469624 -1.219421 7.003211 4.820910 -8.515150 -12.551444 0.000000 0.000000 0.000000 10.241155 -0.722745 0.709061 -6.493781 1.456762 3.628678 0.157168 20.240431 -9.504730 0.000000 0.000000 0.000000 7.791873 0.868825 -16.226363 -3.054970 3.947406 37.625377 2.425895 2.173569 -27.127225 0.000000 0.000000 0.000000 -3.461480 2.620086 44.895720 0.000000 0.000000 0.000000 27.936216 0.097069 5.842930 -19.361364 2.155476 3.814555 -7.393151 -14.486870 -32.747495 0.000000 0.000000 0.000000 -26.370548 1.086622 5.065279 16.722609 -1.013961 8.093063 12.384889 35.984417 -47.833481 
0.000670 0.967080 -0.000440 -4.475349 -3.990532 0.970579 0.000000 0.000000 0.000000 -7.490668 0.419299 -0.577857 7.741990 -1.333935 7.861733 4.992961 -8.488360 -12.833069 0.000000 0.000000 0.000000 10.584629 -0.492155 -0.322594 -6.635314 1.478151 3.582267 0.267968 20.017419 -9.238179 0.000000 0.000000 0.000000 7.466566 0.963709 -16.767351 -3.247196 3.946104 36.823302 3.051409 2.069751 -27.223602 0.000000 0.000000 0.000000 -3.079932 2.362716 46.763140 0.000000 0.000000 0.000000 29.804898 -1.822404 4.578256 -21.962700 2.986464 5.889568 -6.052433 -12.566642 -30.950468 0.000000 0.000000 0.000000 -27.685504 3.492662 3.412289 16.853521 -1.567720 10.049739 12.049784 39.745511 -52.559901 
0.002311 0.965985 -0.001447 -4.709729 -4.103535 1.971102 0.000000 0.000000 0.000000 -7.439050 0.137984 -1.501352 7.964598 -1.341625 7.584591 4.880104 -8.279075 -12.586051 0.000000 0.000000 0.000000 10.509287 -0.221631 -1.416689 -6.289795 1.398321 3.472684 0.403701 20.084457 -9.013841 0.000000 0.000000 0.000000 8.279494 0.948742 -17.068268 -3.938744 4.193960 35.692156 3.348104 2.197641 -26.803352 0.000000 0.000000 0.000000 -3.167327 2.504420 46.587795 0.000000 0.000000 0.000000 29.348087 -2.434870 3.889683 -21.810559 3.225061 6.738947 -6.447276 -11.766821 -27.987172 0.000000 0.000000 0.000000 -28.240751 4.251382 2.911776 15.929315 -1.710349 10.566711 13.933313 44.022585 -54.177517 
0.001817 0.965360 -0.001251 -4.923286 -4.236731 2.227453 0.000000 0.000000 0.000000 -7.150408 0.116207 -1.514353 7.939055 -1.311209 7.287378 4.777795 -8.145152 -12.375969 0.000000 0.000000 0.000000 10.733929 -0.194402 -1.573402 -6.323187 1.381589 3.285171 0.449786 20.178964 -8.957872 0.000000 0.000000 0.000000 8.779266 0.798937 -16.387413 -4.263662 4.246336 34.655145 3.367786 2.304595 -27.047331 0.000000 0.000000 0.000000 -3.257644 2.576185 45.600447 0.000000 0.000000 0.000000 29.127428 -2.884606 3.430838 -21.964346 3.492933 7.634383 -6.546821 -10.849696 -25.291737 0.000000 0.000000 0.000000 -28.987280 4.970337 2.462633 16.030412 -1.897097 11.255055 15.665290 47.001757 -54.643600 
0.000786 0.964957 -0.000672 -4.960944 -4.093301 2.623460 0.000000 0.000000 0.000000 -7.008305 0.002658 -1.866876 7.887408 -1.304870 7.299564 4.756208 -8.188927 -12.344252 0.000000 0.000000 0.000000 10.838578 -0.125190 -1.880722 -6.381086 1.380207 3.186083 0.391274 19.993789 -8.999489 0.000000 0.000000 0.000000 9.054887 0.678554 -15.831221 -4.648030 4.266717 33.375119 3.396948 2.398851 -27.512921 0.000000 0.000000 0.000000 -3.262541 2.491941 44.219689 0.000000 0.000000 0.000000 28.765967 -3.318715 2.983131 -21.984742 3.733686 8.512364 -6.630245 -9.894095 -22.433530 0.000000 0.000000 0.000000 -29.502180 5.398702 2.182484 16.146685 -2.156267 12.221499 17.832406 48.872311 -53.426587 
-0.000298 0.964559 0.000069 -4.924004 -3.933177 2.986207 0.000000 0.000000 0.000000 -6.927049 -0.118849 -2.260014 7.788367 -1.301608 7.422875 4.756792 -8.232597 -12.348812 0.000000 0.000000 0.000000 10.852490 -0.040634 -2.227331 -6.409347 1.392188 3.238029 0.314538 19.810704 -9.074897 0.000000 0.000000 0.000000 9.153166 0.559589 -15.218042 -5.027687 4.270066 32.045941 3.549593 2.555495 -28.027021 0.000000 0.000000 0.000000 -3.267785 2.389451 42.405909 0.000000 0.000000 0.000000 28.236663 -3.789674 2.475313 -21.771853 3.926144 9.344142 -6.831721 -9.150463 -19.872584 0.000000 0.000000 0.000000 -29.803542 5.920620 1.758469 15.964491 -2.446936 13.348061 18.925851 49.733070 -52.721400 
-0.001320 0.964193 0.000960 -4.949184 -3.875973 3.200576 0.000000 0.000000 0.000000 -6.691674 -0.200316 -2.485516 7.532836 -1.276919 7.563197 4.797425 -8.277604 -12.433140 0.000000 0.000000 0.000000 10.914605 0.033866 -2.529972 -6.390762 1.419048 3.482459 0.234999 19.750273 -9.194328 0.000000 0.000000 0.000000 9.207593 0.470730 -14.750035 -5.166253 4.229931 31.251515 3.627568 2.627883 -28.527677 0.000000 0.000000 0.000000 -3.290399 2.338082 40.629395 0.000000 0.000000 0.000000 27.733882 -4.435729 1.810168 -21.494478 4.093405 10.135194 -6.918488 -8.639607 -18.185844 0.000000 0.000000 0.000000 -29.968082 6.472726 1.290605 15.650594 -2.501366 13.637855 19.315764 50.249412 -52.634664 
-0.002643 0.964019 0.002426 -5.059793 -3.900057 3.621061 0.000000 0.000000 0.000000 -6.250618 -0.333212 -2.849246 7.181709 -1.242580 7.766381 4.944644 -8.344182 -12.723055 0.000000 0.000000 0.000000 11.220089 0.307146 -3.610082 -6.473520 1.613502 4.910887 -0.174874 19.533312 -9.829036 0.000000 0.000000 0.000000 9.290049 0.412969 -14.494010 -5.238388 4.135794 30.222924 3.707081 2.606277 -28.847656 0.000000 0.000000 0.000000 -3.333309 2.338387 38.509698 0.000000 0.000000 0.000000 27.361999 -5.287964 0.973679 -21.204851 4.271618 10.967254 -7.200252 -8.218146 -16.380956 0.000000 0.000000 0.000000 -30.170990 7.299307 0.608082 15.514772 -2.459524 13.526582 20.829443 50.522525 -50.868008 
-0.004733 0.963908 0.004072 -4.959756 -3.989322 4.152569 0.000000 0.000000 0.000000 -6.198274 -0.483768 -3.358152 7.115731 -1.248881 7.962610 5.159343 -8.161620 -13.047759 0.000000 0.000000 0.000000 11.471326 0.719522 -5.177893 -6.731101 1.950817 7.102166 -0.836681 19.162321 -10.851297 0.000000 0.000000 0.000000 9.062026 0.422417 -14.480346 -5.282013 4.067466 29.456131 3.709229 2.497680 -29.003279 0.000000 0.000000 0.000000 -3.240759 2.223425 36.178541 0.000000 0.000000 0.000000 27.119446 -6.092454 0.194558 -20.973892 4.278709 11.148071 -7.395959 -7.496364 -13.839609 0.000000 0.000000 0.000000 -30.161768 8.027402 -0.013161 16.177986 -2.495653 13.568440 21.849488 48.307015 -47.445581 
-0.007407 0.962792 0.007547 -4.761576 -3.913580 4.149224 0.000000 0.000000 0.000000 -6.275991 -0.432631 -3.203150 7.157337 -1.262829 8.055038 5.249097 -8.228335 -13.220286 0.000000 0.000000 0.000000 11.499138 0.700475 -5.109613 -6.823812 2.018855 7.462224 -1.114658 19.050585 -11.309534 0.000000 0.000000 0.000000 8.716476 0.463095 -14.539820 -5.183161 4.083165 29.969001 3.537827 2.307998 -29.389466 0.000000 0.000000 0.000000 -2.952851 1.922205 34.660553 0.000000 0.000000 0.000000 27.020633 -6.754893 -0.405951 -21.235241 4.255840 10.968214 -6.432607 -6.471335 -12.443980 0.000000 0.000000 0.000000 -29.836776 8.029467 -0.064325 17.564274 -2.638192 13.900668 19.234879 43.459384 -46.104158 
-0.010263 0.961990 0.012661 -4.624932 -3.772591 3.946874 0.000000 0.000000 0.000000 -6.248056 -0.318856 -2.813873 7.201551 -1.289596 8.294299 5.330159 -8.455606 -13.425453 0.000000 0.000000 0.000000 11.605200 0.534575 -4.495040 -6.940812 2.038539 7.415206 -1.408219 19.100102 -11.859568 0.000000 0.000000 0.000000 8.443834 0.502978 -14.615967 -5.112967 4.135241 30.723310 3.311747 2.158229 -29.593061 0.000000 0.000000 0.000000 -3.001311 1.913832 33.313997 0.000000 0.000000 0.000000 26.736404 -7.126653 -0.761938 -21.591076 4.143128 10.401579 -4.925055 -5.040719 -10.572289 0.000000 0.000000 0.000000 -28.834740 7.488867 0.212050 19.699673 -2.882040 14.419322 15.157659 34.627116 -42.116247 
-0.013459 0.960675 0.018820 -4.448241 -3.879525 3.927075 0.000000 0.000000 0.000000 -6.332211 -0.260426 -2.634221 7.311697 -1.348739 8.800433 5.475989 -8.419190 -13.679094 0.000000 0.000000 0.000000 11.614176 0.397583 -3.995880 -7.039134 2.047690 7.312724 -1.562535 19.428983 -12.231976 0.000000 0.000000 0.000000 8.315404 0.506161 -14.570351 -5.170389 4.182228 30.816864 3.187814 2.042258 -29.333041 0.000000 0.000000 0.000000 -3.406840 2.272546 32.485177 0.000000 0.000000 0.000000 26.781358 -7.248659 -0.880739 -22.246191 4.190320 10.191108 -3.673339 -3.941028 -9.115317 0.000000 0.000000 0.000000 -28.225312 7.187679 0.378908 21.855372 -2.971389 14.352831 11.688602 26.094014 -36.334843 
